<svg height="36" viewBox="0 0 36 36" width="36" xmlns="http://www.w3.org/2000/svg"><g fill="none" fill-rule="evenodd"><path d="m0 0h36v36h-36z"/><path d="m21 10h-16c-.55228475 0-1 .4477153-1 1s.44771525 1 1 1h16c.5522847 0 1-.4477153 1-1s-.4477153-1-1-1zm0 6h-16c-.55228475 0-1 .4477153-1 1s.44771525 1 1 1h16c.5522847 0 1-.4477153 1-1s-.4477153-1-1-1zm-16 8c-.55228475 0-1-.4477153-1-1s.44771525-1 1-1h11c.5522847 0 1 .4477153 1 1s-.4477153 1-1 1zm22-.8667116c0 4.5123987-.8747233 5.3834431-4.3744029 5.8421935-1.6682259.2186769-3.6255971-.5384568-3.6255971-3.1617096 0-1.2814037.801813-2.498263 2.4611428-2.8162494 1.2672304-.2428462-.0907812.0181935 2.7760723-.5140396.6959753-.1292083.7748413-.3782301.7748413-.908791 0-.2664094-.0013183-2.5951438-.0096359-4.1940337v-4.3178141s-.0054461-2.0582721 0-3.08739762c.0065136-1.23086488.6796458-1.68321833 2.6637921-2.08397579 0 0 3.0232113-.57396781 4.6852252-.87541989.367783-.06670761.6485622.07018054.6485622.49202579 0 0-.0106774 2.62210111 0 4.05433851.0031006.4159041-.168424.6042011-.5899711.6790223-1.6816987.298488-4.8649278.8603618-4.8649278.8603618-.3738792.0918276-.5451011.3549996-.5451011.7332916z" fill="#6f98c7"/></g></svg>