<svg xmlns="http://www.w3.org/2000/svg" x="0px" y="0px"
     width="50" height="50"
     viewBox="0 0 252 252"
     style="fill:#000000;"><g transform="translate(2.394,2.394) scale(0.981,0.981)"><g fill="none" fill-rule="nonzero" stroke="none" stroke-width="none" stroke-linecap="butt" stroke-linejoin="none" stroke-miterlimit="10" stroke-dasharray="" stroke-dashoffset="0" font-family="none" font-weight="none" font-size="none" text-anchor="none" style="mix-blend-mode: normal"><g id="original-icon 1" fill="#ffffff" stroke="#ffffff" stroke-width="5" stroke-linejoin="round"><path d="M171.36,15.12c36.12428,0 65.52,29.39572 65.52,65.52v90.72c0,36.12428 -29.39572,65.52 -65.52,65.52h-90.72c-36.12428,0 -65.52,-29.39572 -65.52,-65.52v-90.72c0,-36.12428 29.39572,-65.52 65.52,-65.52zM25.2,80.64v90.72c0,30.67588 24.76412,55.44 55.44,55.44h90.72c30.67588,0 55.44,-24.76412 55.44,-55.44v-90.72c0,-30.67588 -24.76412,-55.44 -55.44,-55.44h-90.72c-30.67588,0 -55.44,24.76412 -55.44,55.44zM196.56,65.52c0,5.56703 -4.51297,10.08 -10.08,10.08c-5.56703,0 -10.08,-4.51297 -10.08,-10.08c0,-5.56703 4.51297,-10.08 10.08,-10.08c5.56703,0 10.08,4.51297 10.08,10.08zM181.44,126c0,30.55897 -24.88103,55.44 -55.44,55.44c-30.55897,0 -55.44,-24.88103 -55.44,-55.44c0,-30.55897 24.88103,-55.44 55.44,-55.44c30.55897,0 55.44,24.88103 55.44,55.44zM80.64,126c0,25.11133 20.24867,45.36 45.36,45.36c25.11133,0 45.36,-20.24867 45.36,-45.36c0,-25.11133 -20.24867,-45.36 -45.36,-45.36c-25.11133,0 -45.36,20.24867 -45.36,45.36z"></path></g><path d="M0,252v-252h252v252z" fill="none" stroke="none" stroke-width="1" stroke-linejoin="miter"></path><g id="original-icon" fill="#ffffff" stroke="none" stroke-width="1" stroke-linejoin="miter"><path d="M80.64,15.12c-36.12428,0 -65.52,29.39572 -65.52,65.52v90.72c0,36.12428 29.39572,65.52 65.52,65.52h90.72c36.12428,0 65.52,-29.39572 65.52,-65.52v-90.72c0,-36.12428 -29.39572,-65.52 -65.52,-65.52zM80.64,25.2h90.72c30.67588,0 55.44,24.76412 55.44,55.44v90.72c0,30.67588 -24.76412,55.44 -55.44,55.44h-90.72c-30.67588,0 -55.44,-24.76412 -55.44,-55.44v-90.72c0,-30.67588 24.76412,-55.44 55.44,-55.44zM186.48,55.44c-5.56703,0 -10.08,4.51297 -10.08,10.08c0,5.56703 4.51297,10.08 10.08,10.08c5.56703,0 10.08,-4.51297 10.08,-10.08c0,-5.56703 -4.51297,-10.08 -10.08,-10.08zM126,70.56c-30.55897,0 -55.44,24.88103 -55.44,55.44c0,30.55897 24.88103,55.44 55.44,55.44c30.55897,0 55.44,-24.88103 55.44,-55.44c0,-30.55897 -24.88103,-55.44 -55.44,-55.44zM126,80.64c25.11133,0 45.36,20.24867 45.36,45.36c0,25.11133 -20.24867,45.36 -45.36,45.36c-25.11133,0 -45.36,-20.24867 -45.36,-45.36c0,-25.11133 20.24867,-45.36 45.36,-45.36z"></path></g><path d="M126,252c-69.58788,0 -126,-56.41212 -126,-126v0c0,-69.58788 56.41212,-126 126,-126v0c69.58788,0 126,56.41212 126,126v0c0,69.58788 -56.41212,126 -126,126z" fill="none" stroke="none" stroke-width="1" stroke-linejoin="miter"></path><path d="M126,246.96c-66.80436,0 -120.96,-54.15564 -120.96,-120.96v0c0,-66.80436 54.15564,-120.96 120.96,-120.96h0c66.80436,0 120.96,54.15564 120.96,120.96v0c0,66.80436 -54.15564,120.96 -120.96,120.96z" fill="none" stroke="none" stroke-width="1" stroke-linejoin="miter"></path><path d="" fill="none" stroke="none" stroke-width="1" stroke-linejoin="miter"></path><path d="" fill="none" stroke="none" stroke-width="1" stroke-linejoin="miter"></path><path d="" fill="none" stroke="none" stroke-width="1" stroke-linejoin="miter"></path><path d="" fill="none" stroke="none" stroke-width="1" stroke-linejoin="miter"></path></g></g></svg>