<svg height="11" viewBox="0 0 15 11" width="15" xmlns="http://www.w3.org/2000/svg"><path d="m702 20v-2h-1v5h1v-2h2v-1zm-4-3.4935615c0-.831983.663886-1.5064385 1.493096-1.5064385h12.013808c.824614 0 1.493096.6715406 1.493096 1.5064385v7.987123c0 .831983-.663886 1.5064385-1.493096 1.5064385h-12.013808c-.824614 0-1.493096-.6715406-1.493096-1.5064385zm6 1.4935615v5h1v-5zm2 1v3h1v-3zm3 4v1h1v-1zm0-4v3h1v-3zm-2-1v1h2v-1zm0 4v1h2v-1z" fill="#cdd0d6" fill-rule="evenodd" transform="translate(-698 -15)"/></svg>