<svg width="24" height="24" viewBox="5 12 24 24" xmlns="http://www.w3.org/2000/svg"><g fill="none" fill-rule="evenodd"><path d="M5 12h24v24H5"/><path d="M24 29.52c0 1.92-1.57 3.48-3.5 3.48S17 31.43 17 29.5s1.57-3.5 3.5-3.5c.54 0 1.05.12 1.5.34V17.4c0-.27.23-.53.5-.58l5-.9c.28-.06.5.12.5.4v2.27c0 .27-.23.53-.5.58l-3.5.64v9.7zM8 19c0-.55.46-1 1-1h10c.55 0 1 .44 1 1 0 .55-.46 1-1 1H9c-.55 0-1-.44-1-1zm0 4c0-.55.46-1 1-1h10c.55 0 1 .44 1 1 0 .55-.46 1-1 1H9c-.55 0-1-.44-1-1zm0 4c0-.55.45-1 1-1h6c.55 0 1 .44 1 1 0 .55-.45 1-1 1H9c-.55 0-1-.44-1-1z" fill="#A5ABB4"/></g></svg>