<svg xmlns="http://www.w3.org/2000/svg" width="24" height="24"><g fill="none" fill-rule="evenodd"><g fill-rule="nonzero"><path fill="#828A99" d="M4.06 19.581a1 1 0 0 1 0-1.414l9.193-9.192a1 1 0 0 1 1.414 1.414L5.475 19.58a1 1 0 0 1-1.415 0z"/><path fill="#FFF" d="M11.707 13.348l-1.414-1.414.707-.707 1.414 1.414z"/></g><path fill="#828A99" stroke="#828A99" d="M7 7l.793-1.5L7 4l1.5.793L10 4l-.793 1.5L10 7l-1.5-.793zm10 0l.793-1.5L17 4l1.5.793L20 4l-.793 1.5L20 7l-1.5-.793zm0 9l.793-1.5L17 13l1.5.793L20 13l-.793 1.5L20 16l-1.5-.793z"/></g></svg>