<svg height="24" viewBox="0 0 24 24" width="24" xmlns="http://www.w3.org/2000/svg"><g fill="none" fill-rule="evenodd"><path d="m0 0h24v24h-24z" opacity=".15"/><path d="m8.627 1h6.746c6.16 0 7.627 1.467 7.627 7.627v6.746c0 6.16-1.467 7.627-7.627 7.627h-6.746c-6.16 0-7.627-1.467-7.627-7.627v-6.746c0-6.16 1.467-7.627 7.627-7.627z" fill="#5181b8"/><path d="m19.016 8.58c.102-.34 0-.59-.485-.59h-1.604c-.408 0-.596.215-.698.453 0 0-.816 1.989-1.971 3.28-.374.374-.544.493-.748.493-.102 0-.25-.119-.25-.459v-3.177c0-.408-.118-.59-.458-.59h-2.52c-.256 0-.409.19-.409.37 0 .386.578.475.637 1.563v2.362c0 .518-.093.612-.297.612-.544 0-1.867-1.997-2.651-4.283-.154-.444-.308-.623-.718-.623h-1.604c-.459 0-.55.215-.55.453 0 .425.543 2.533 2.532 5.32 1.325 1.903 3.193 2.935 4.893 2.935 1.02 0 1.145-.23 1.145-.624v-1.439c0-.458.097-.55.42-.55.238 0 .646.12 1.597 1.037 1.088 1.088 1.267 1.576 1.88 1.576h1.603c.459 0 .688-.23.556-.681-.145-.451-.664-1.105-1.353-1.88-.374-.442-.935-.918-1.105-1.156-.238-.306-.17-.442 0-.714 0 0 1.954-2.753 2.158-3.688z" fill="#fff"/></g></svg>