<svg height="24" viewBox="0 0 24 24" width="24" xmlns="http://www.w3.org/2000/svg"><g fill="none" fill-rule="evenodd"><path d="m0 0h24v24h-24z"/><g transform="translate(4 4)"><path d="m11.8238049.12495295 2.9958684 2.49146374c.2133774.17745177.242501.49428145.0650492.70765889-.0196485.0236264-.0414228.04540069-.0650492.06504919l-2.9958684 2.49146374c-.2133775.17745177-.5302072.14832826-.7076589-.06504918-.0750541-.09024902-.116146-.20392513-.116146-.32130486v-4.98292748c0-.27752309.2249769-.5025.5025-.5025.1173797 0 .2310558.04109188.3213049.11614596zm-7.64759736 10.00000005-2.99586845 2.4914637c-.21337744.1774518-.24250095.4942814-.06504918.7076589.0196485.0236264.04142278.0454007.06504918.0650492l2.99586845 2.4914637c.21337745.1774518.53020712.1483283.70765889-.0650492.07505408-.090249.11614597-.2039251.11614597-.3213048v-4.9829275c0-.2775231-.22497692-.5025-.5025-.5025-.11737973 0-.23105584.0410919-.32130486.116146z" fill="#356ca9" fill-rule="nonzero"/><path d="m0 7.03094093c0-2.5 1.5-4 4-4h7.5" stroke="#356ca9" stroke-linecap="round" stroke-linejoin="round" stroke-width="1.8"/><path d="m17 9.03094093c0 2.49999997-1.5 3.99999997-4 3.99999997h-8.5" stroke="#356ca9" stroke-linecap="round" stroke-linejoin="round" stroke-width="1.8"/><path d="m9 5h-1l-2 1v1h1.5v4h.5 1z" fill="#356ca9" fill-rule="nonzero"/></g></g></svg>