<svg width="16" height="37" viewBox="0 0 16 37" xmlns="http://www.w3.org/2000/svg"><g fill="none" fill-rule="evenodd"><path d="M-4 18h24v24H-4z"/><path d="M7 29H2c-.552 0-1 .448-1 1s.448 1 1 1h5v5c0 .552.448 1 1 1s1-.448 1-1v-5h5c.552 0 1-.448 1-1s-.448-1-1-1H9v-5c0-.552-.448-1-1-1s-1 .448-1 1v5z" fill="#828A99" fill-rule="nonzero"/><g transform="translate(-4 -6)"><rect opacity=".5" width="24" height="24" rx="2"/><path stroke="#356CA9" stroke-width="2" stroke-linecap="round" stroke-linejoin="round" d="M5 13l4 4L19 7"/></g></g></svg>