<svg height="20" viewBox="84 14 42 20" width="42" xmlns="http://www.w3.org/2000/svg"><g fill="none" fill-rule="evenodd" transform="translate(84 14)"><rect fill="#f75148" height="20" rx="2" width="42"/><path d="m26.874 6.486-2.464 7.562c-.17.523-.756.952-1.307.952h-.206c-.552 0-1.136-.426-1.307-.952l-2.464-7.562c-.06-.11-.103-.233-.12-.363l-.006-.023h.005c-.003-.033-.005-.066-.005-.1 0-.552.448-1 1-1 .52 0 .945.395.995.9h.005l2 6.4 2-6.4h.005c.05-.505.476-.9.995-.9.552 0 1 .448 1 1 0 .034-.002.067-.005.1h.005l-.007.023c-.016.13-.058.253-.12.363zm4.126 2.514v-2h3.01c.54 0 .99-.448.99-1 0-.556-.444-1-.99-1h-4.02c-.268 0-.515.11-.696.29-.184.184-.294.432-.294.705v8.01c0 .268.11.516.29.697.18.188.428.298.7.298h4.02c.54 0 .99-.448.99-1 0-.556-.444-1-.99-1h-3.01v-2h3.01c.54 0 .99-.448.99-1 0-.556-.444-1-.99-1zm-22 4v-7.005c0-.54-.448-.995-1-.995-.556 0-1 .446-1 .995v8.01c0 .268.11.516.29.697.18.188.428.298.7.298h4.02c.54 0 .99-.448.99-1 0-.556-.444-1-.99-1zm6-7.005c0-.55.444-.995 1-.995.552 0 1 .456 1 .995v8.01c0 .55-.444.995-1 .995-.552 0-1-.456-1-.995z" fill="#f0f2f5"/></g></svg>