<svg height="24" viewBox="0 0 24 24" width="24" xmlns="http://www.w3.org/2000/svg"><g fill="none" fill-rule="evenodd"><rect height="24" rx="2" width="24"/><path d="m10.9524534 8.84368896c-.5253646-.46752335-1.38516582-1.093665-2.04548699-1.38299228-.6586721-.28860472-1.39760721-.46069668-2.24298246-.46069668h-1.66398395v2h2.00000003c.44496004.00032256.80955686.07605932 1.13936853.21698902.45160155.19297094 1.14248871.6998227 1.58066297 1.11101388.12515983-.1543728.87700007-1.07545523 1.23242187-1.48431394zm5.0475466.33765736c-1.290143.48785845-2.2425661 1.88662248-3.3023071 3.29143198-1.4601981 1.9369992-2.76285524 4.5272217-5.6976929 4.5272217h-2v-2s1.96787282.0008385 2 0c1.75405191-.0457782 2.84036851-2.0394898 4.1293335-3.7492065 1.2858947-1.70506714 2.5769913-3.70359845 4.8706665-4.15643086v-2.09436264l4 3-4 3zm0 7.70361658c-1.3300705-.3061414-2.4518956-1.1759558-3.3197021-2.0316304.4155948-.4939672 1.2329711-1.50177 1.2329711-1.50177.5603673.5849346 1.3054558 1.1617351 2.086731 1.4530311v-1.8045936l4 3-4 3z" fill="#fff"/></g></svg>