<svg height="24" viewBox="0 0 24 24" width="24" xmlns="http://www.w3.org/2000/svg"><g fill="none" fill-rule="evenodd"><circle cx="12" cy="12" fill="#fff" r="12"/><path d="m8 7.59559822c0-.32893981.27685547-.59559822.60709476-.59559822h1.78581044c.3352892 0 .6070948.26747584.6070948.59559822v8.80880358c0 .3289398-.2768555.5955982-.6070948.5955982h-1.78581044c-.33528918 0-.60709476-.2674758-.60709476-.5955982zm5 0c0-.32893981.2768555-.59559822.6070948-.59559822h1.7858104c.3352892 0 .6070948.26747584.6070948.59559822v8.80880358c0 .3289398-.2768555.5955982-.6070948.5955982h-1.7858104c-.3352892 0-.6070948-.2674758-.6070948-.5955982z" fill="#222"/></g></svg>