<svg height="15" width="15" xmlns="http://www.w3.org/2000/svg"><g fill="none" fill-rule="evenodd"><path d="M3.846 0h7.308c1.337 0 1.822.14 2.311.4.49.262.873.646 1.134 1.135.262.489.401.974.401 2.31v7.31c0 1.336-.14 1.821-.4 2.31a2.726 2.726 0 01-1.135 1.134c-.489.262-.974.401-2.31.401h-7.31c-1.336 0-1.821-.14-2.31-.4A2.726 2.726 0 01.4 13.464C.139 12.976 0 12.491 0 11.155v-7.31c0-1.336.14-1.821.4-2.31A2.726 2.726 0 011.536.4C2.024.139 2.509 0 3.845 0z" fill="#5181b8"/><path d="M4 7.5h7" stroke="#fff" stroke-linecap="round" stroke-width="1.7"/></g></svg>