<svg height="84" viewBox="0 0 84 84" width="84" xmlns="http://www.w3.org/2000/svg"><g fill="none" fill-rule="evenodd"><circle cx="42" cy="42" fill="#528bcc" r="42"/><path d="m51.902 63.985c-.295 1.343-1.262 2.015-2.902 2.015h-14c-1.64 0-2.607-.672-2.902-2.015.186.01.375.015.569.015h18.666c.194 0 .383-.005.57-.015zm3.742-4.095c-.578 1.407-1.86 2.11-3.844 2.11h-19.6c-1.984 0-3.266-.703-3.844-2.11.52.073 1.068.11 1.644.11h24c.576 0 1.125-.037 1.644-.11zm-31.644-31.89c0-4 2-6 6-6h24c4 0 6 2 6 6v24c0 4-2 6-6 6h-24c-4 0-6-2-6-6zm22 2c-4 0-4 0-4 4v8s-.84-1-3-1c-2.76 0-5 2.24-5 5s2.24 5 5 5 5-2.24 5-5v-10c0-2 0-2 2-2 4 0 4 0 4-2s0-2-4-2z" fill="#fff"/></g></svg>