<svg width="24" height="24" viewBox="0 0 24 24" xmlns="http://www.w3.org/2000/svg">
  <path d="M18 8.9h-3.5c-1.014 0-1.896.9-3.758 3.61C8.479 15.8 7.402 16.9 5.5 16.9H3a.9.9 0 0 1 0-1.8h2.5c1.014 0 1.896-.9 3.758-3.61C11.521 8.2 12.598 7.1 14.5 7.1H18V5.511a.502.502 0 0 1 .824-.386l2.996 2.491a.503.503 0 0 1 0 .773l-2.996 2.492a.503.503 0 0 1-.824-.387V8.9zm-5.966 4.377c1.046 1.336 1.72 1.823 2.466 1.823H18v-1.589a.502.502 0 0 1 .824-.386l2.996 2.491a.503.503 0 0 1 0 .773l-2.996 2.492a.503.503 0 0 1-.824-.387V16.9h-3.5c-1.36 0-2.299-.562-3.55-2.086a58.818 58.818 0 0 0 1.084-1.537zM9.05 9.186a58.818 58.818 0 0 0-1.084 1.537C6.92 9.387 6.246 8.9 5.5 8.9H3a.9.9 0 1 1 0-1.8h2.5c1.36 0 2.299.562 3.55 2.086z" fill="#828A99"/>
</svg>