<svg height="48" viewBox="313 4 24 48" width="24" xmlns="http://www.w3.org/2000/svg"><g fill="none" fill-rule="evenodd"><path d="m313 28h24v24h-24z"/><path d="m326 39v-5c0-.55-.45-1-1-1s-1 .45-1 1v5h-5c-.55 0-1 .45-1 1s.45 1 1 1h5v5c0 .55.45 1 1 1s1-.45 1-1v-5h5c.55 0 1-.45 1-1s-.45-1-1-1z" fill="#fff" fill-rule="nonzero"/><g transform="translate(313 4)"><rect height="24" opacity=".5" rx="2" width="24"/><path d="m5 13 4 4 10-10" stroke="#828a99" stroke-linecap="round" stroke-linejoin="round" stroke-width="2"/></g></g></svg>