<svg width="24" height="48" viewBox="163 48 24 48" xmlns="http://www.w3.org/2000/svg"><g fill="none" fill-rule="evenodd"><path d="M163 72h24v24h-24z"/><path d="M169 85h12c.55 0 1-.45 1-1s-.45-1-1-1h-12c-.55 0-1 .45-1 1s.45 1 1 1z" fill="#828A99" fill-rule="nonzero"/><path d="M174 78v12c0 .55.45 1 1 1s1-.45 1-1V78c0-.55-.45-1-1-1s-1 .45-1 1z" fill="#828A99" fill-rule="nonzero"/><g transform="translate(163 48)"><rect opacity=".5" width="24" height="24" rx="2"/><path stroke="#828A99" stroke-width="2" stroke-linecap="round" stroke-linejoin="round" d="M5 13l4 4L19 7"/></g></g></svg>