<svg height="24" viewBox="0 0 24 24" width="24" xmlns="http://www.w3.org/2000/svg"><g fill="none" fill-rule="evenodd"><path d="m0 0h24v24h-24z" opacity=".4"/><path d="m13 11.4849987v5.6482897c0 4.5123987-.8747233 5.3834431-4.37440289 5.8421935-1.6682259.2186769-3.62559711-.5384568-3.62559711-3.1617096 0-1.2814037.80181302-2.498263 2.46114282-2.8162494 1.26723039-.2428462-.09078118.0181935 2.77607228-.5140396.6959753-.1292083.7748413-.3782301.7748413-.908791 0-.2664094-.0013183-2.5951438-.0022416-4.1936475l-.0073943-.0003862v-4.31781414s-.0054461-2.05827203 0-3.08739758c.0065136-1.23086488.6796458-1.68321833 2.6637921-2.08397579 0 0 3.0232113-.57396781 4.6852252-.87541989.367783-.06670761.6485622.07018054.6485622.49202579 0 0-.0106774 2.62210108 0 4.05433854.0031006.41590408-.168424.60420104-.5899711.67902227-1.6816987.29848801-4.8649278.86036181-4.8649278.86036181-.3738792.09182758-.5451011.35499958-.5451011.73329156z" fill="#6f99c8" fill-rule="nonzero"/></g></svg>