<svg height="24" viewBox="627 0 24 24" width="24" xmlns="http://www.w3.org/2000/svg"><path d="m16 7c-2.94 0-4.4 2.3-5.87 4.25-1.3 1.7-2.38 3.7-4.13 3.75h-3v2h3c2.93 0 4.24-2.6 5.7-4.53 1.3-1.74 2.46-3.47 4.3-3.47h1v-2zm-6.06 1.84c-.52-.46-1.38-1.1-2.04-1.38-.64-.3-1.4-.46-2.23-.46h-2.67v2h3c.44 0 .8.08 1.14.22.45.2 1.14.7 1.58 1.1l1.23-1.48zm6.06 6.16h1v2h-1c-1.77 0-3.24-1.08-4.32-2.15l1.23-1.5c.8.83 1.98 1.65 3.1 1.65zm1 4v-6l4 3zm0-8v-6l4 3z" fill="#356ca9" fill-rule="evenodd" transform="translate(627)"/></svg>