<svg id="Layer_1" data-name="Layer 1" xmlns="http://www.w3.org/2000/svg" viewBox="0 0 29 30"><defs><style>.cls-1{fill:#ec585e}</style></defs><path class="cls-1" d="M316 292.47a3.86 3.86 0 0 1-.79 2.65 3.2 3.2 0 0 1-4.41 0 3.84 3.84 0 0 1-.8-2.65v-1.93a3.87 3.87 0 0 1 .79-2.65 3.19 3.19 0 0 1 4.41 0 3.85 3.85 0 0 1 .8 2.65v1.93zm-1.77-2.11a2.89 2.89 0 0 0-.31-1.54 1.13 1.13 0 0 0-1.84 0 2.93 2.93 0 0 0-.3 1.54v2.28a2.93 2.93 0 0 0 .31 1.55 1 1 0 0 0 .93.47 1 1 0 0 0 .91-.47 3 3 0 0 0 .3-1.55v-2.28zm8.77 2.11a3.86 3.86 0 0 1-.79 2.65 3.2 3.2 0 0 1-4.41 0 3.84 3.84 0 0 1-.8-2.65v-1.93a3.87 3.87 0 0 1 .79-2.65 3.19 3.19 0 0 1 4.41 0 3.85 3.85 0 0 1 .8 2.65v1.93zm-1.77-2.11a2.89 2.89 0 0 0-.31-1.54 1.13 1.13 0 0 0-1.84 0 2.93 2.93 0 0 0-.3 1.54v2.28a2.93 2.93 0 0 0 .31 1.55 1 1 0 0 0 .93.47 1 1 0 0 0 .91-.47 3 3 0 0 0 .3-1.55v-2.28zM309 296h-5.79v-1.11l2.74-2.94a6.62 6.62 0 0 0 .85-1.15 1.86 1.86 0 0 0 .24-.87 1.32 1.32 0 0 0-.28-.88 1 1 0 0 0-.82-.33 1.06 1.06 0 0 0-.9.39 1.72 1.72 0 0 0-.3 1.07H303a2.71 2.71 0 0 1 .77-2 2.84 2.84 0 0 1 2.12-.79 3 3 0 0 1 2.07.67 2.35 2.35 0 0 1 .74 1.83 2.55 2.55 0 0 1-.41 1.41 13.67 13.67 0 0 1-1.41 1.71l-1.54 1.68H309V296z" transform="translate(-299 -266)"/><path fill="#ffdee4" d="M3 4h5v8H3z"/><path class="cls-1" transform="rotate(-18.45 -642.85 1057.542)" d="M323.92 269.5h3.16v1h-3.16z"/><path class="cls-1" d="M26 7h3v1h-3z"/><path class="cls-1" transform="rotate(-71.57 -8.545 351.4)" d="M325 275.42h1v3.16h-1z"/><path class="cls-1" d="M320.5 271h-.5v-5h-1c0 1-6.26 2.83-11 3.21l-6-.21v2h-3v5h3v2h2v4.5a2.5 2.5 0 0 0 5 0V281a3.51 3.51 0 0 0 2.95-2.49c3.87.33 7.05 1.08 7.05 2.54h1v-5h.5a2.5 2.5 0 0 0 2.5-2.5V273c0-1.38-1.12-2-2.5-2zm-20.5 4v-3h2v3h-2zm3 2v-7h4v7h-4zm5 5.5a1.5 1.5 0 0 1-3 0V278h2l.48.25h.52v4.24zm2.93-4.08a2.54 2.54 0 0 1-1.93 1.52v-1.66l1.58.07zm8.07.58c-2.11-1.4-7.05-1.81-10-1.93h-.46l-.54-.09V270c2.27-.16 8.55-.75 11-2.7V279zm3-5.47a1.5 1.5 0 0 1-1.5 1.5h-.5v-3h.5c.83 0 1.5.17 1.5 1v.5z" transform="translate(-299 -266)"/><path class="cls-1" transform="rotate(-11.5 -1156.426 1615.257)" d="M311.95 271h5.1v1h-5.1z"/></svg>