<svg id="Layer_1" xmlns="http://www.w3.org/2000/svg" viewBox="0 0 29.8 33"><style>.st0{fill:#ec585e}</style><path class="st0" d="M2.8 10.4c-.2-2.1 1.2-3.6 3.6-4l.1 1c-1.1.2-2.9.8-2.8 2.9l-.9.1z"/><path d="M6.5 20h16c0 .6.2 1.1-1 1h-14c-1.1.1-1-.4-1-1z" fill="#ffdee4"/><path class="st0" d="M23.1 3.7c-.7 0-1.4.1-2 .3-1.1-2.5-3.6-4.1-6.4-4C12 0 9.5 1.5 8.3 3.9c-.6-.1-1.1-.1-1.6-.2C3 3.7 0 6.4 0 9.6c0 2.9 2.4 5.3 5.5 5.8v5.1c0 .8.7 1.5 1.5 1.5h15c.8 0 1.5-.7 1.5-1.5v-5c3.5-.2 6.3-2.7 6.3-5.9s-3-5.9-6.7-5.9zm-.6 16.8c0 .3-.2.5-.5.5H7c-.3 0-.5-.2-.5-.5V20h16v.5zm1-6V14h-1v5h-2v-4h-1v4h-3v-4h-1v4h-3v-4h-1v4h-5v-3.5s.1 0 0 0v-1s.1 0 0 0V14h-1v.4c-2.4-.3-4.3-2.3-4.5-4.8 0-2.7 2.6-4.9 5.7-4.9.4 0 .8.1 1.2.1-.1.4-.1.8-.1 1.2h1c0-3 2.6-5 5.9-5 3.6 0 5.8 2.5 5.8 5.1V7h1v-.9c0-.4 0-.7-.1-1.1.6-.2 1.2-.3 1.8-.3 3.1 0 5.7 2.2 5.7 4.9s-2.4 4.7-5.4 4.9zm-2.3 14.9c.1 1-.2 1.9-.8 2.6-1.2 1.2-3.2 1.2-4.4 0-.6-.8-.9-1.7-.8-2.6v-1.9c-.1-1 .2-1.9.8-2.6 1.2-1.2 3.2-1.2 4.4 0 .6.8.9 1.7.8 2.6v1.9zm-2-3.6c-.4-.5-1.1-.6-1.6-.3l-.3.3c-.2.5-.3 1-.3 1.5v2.3c0 .5.1 1.1.3 1.5.2.3.6.5.9.5.4 0 .7-.2.9-.5.2-.5.3-1 .3-1.5v-2.3s0-1.1-.2-1.5zM8.7 29.1l.5-4.7H14v1.4h-3.3l-.2 2 .6-.3c.9-.3 1.9 0 2.6.6.5.6.7 1.4.7 2.1s-.2 1.4-.7 2c-.7.7-1.5.8-2.3.8-.7 0-1.4-.2-2-.6-.6-.4-.9-1.1-.8-1.8l1.7-.1c0 .3.1.6.3.9.2.2.5.3.8.3s.7-.1.9-.4.3-.7.3-1.1-.1-.8-.3-1.2c-.2-.3-.5-.5-.9-.4-.3 0-.5 0-.8.2-.2.1-.3.3-.4.5l-1.5-.2z"/></svg>