<svg id="Layer_1" data-name="Layer 1" xmlns="http://www.w3.org/2000/svg" viewBox="0 0 26 28"><defs><style>.cls-1{fill:#ec585e}.cls-2{fill:#ffdee4}</style></defs><path class="cls-1" transform="rotate(-33.69 -10.737 934.843)" d="M517.5 169.2h1v3.61h-1z"/><path class="cls-1" transform="rotate(-56.31 122.596 567.311)" d="M531.2 170.5h3.61v1h-3.61z"/><path class="cls-1" d="M12.5 0h1v3h-1zm0 17h1v5h-1z"/><path class="cls-1" transform="rotate(-75.98 169.845 431.605)" d="M530.72 185.5h2.06v1h-2.06z"/><path class="cls-1" transform="rotate(-14.04 -407.613 2184.439)" d="M518.25 184.97h1v2.06h-1z"/><circle class="cls-2" cx="13" cy="8.5" r="1"/><circle class="cls-2" cx="24" cy="12.5" r="1"/><circle class="cls-2" cx="2" cy="12.5" r="1"/><rect class="cls-2" x="3.5" y="24" width="19" height="3" rx="1" ry="1"/><path class="cls-1" d="M536.5 175.5a2 2 0 0 0-1.42 3.41l-4 2.87-4.31-6.78a2 2 0 1 0-2.53 0l-4.37 6.75-4-2.88a2 2 0 1 0-1.51.58l1.63 8.77a2 2 0 0 0-1 1.74v1a2 2 0 0 0 2 2h17a2 2 0 0 0 2-2v-1a2 2 0 0 0-1-1.74l1.84-8.79a2 2 0 0 0-.33-3.93zm-11-3a1 1 0 1 1-1 1 1 1 0 0 1 1-1zm-11 6a1 1 0 1 1 1-1 1 1 0 0 1-1 1zM535 190v1a1 1 0 0 1-1 1h-17a1 1 0 0 1-1-1v-1a1 1 0 0 1 1-1h17a1 1 0 0 1 1 1zm-1-2h-17l-1.75-8.33 4.88 3.55 5-7.75a1.76 1.76 0 0 0 .7 0l5 7.75 4.88-3.55zm2.5-9.5a1 1 0 1 1 1-1 1 1 0 0 1-1 1z" transform="translate(-512.5 -165)"/></svg>