<svg data-name="Layer 1" xmlns="http://www.w3.org/2000/svg" viewBox="0 0 27 28"><path d="M6.5 27.2c-2.88 0-5.3-1.19-5.3-2.6S3.63 22 6.5 22s5.3 1.19 5.3 2.6-2.42 2.6-5.3 2.6zm14 .01c-2.88 0-5.3-1.14-5.3-2.48s2.43-2.48 5.3-2.48 5.3 1.14 5.3 2.48-2.42 2.48-5.3 2.48z" fill="#ffdee4"/><path d="M25 16.2V9a4.47 4.47 0 0 0-1.17-3H24V3c0-1.58-1.79-3-3.37-3h-.26C18.79 0 17 1.42 17 3v3h.17A4.47 4.47 0 0 0 16 9h-2V8h-1v1h-2a4.47 4.47 0 0 0-1.17-3H10V3c0-1.58-1.79-3-3.37-3h-.26C4.79 0 3 1.42 3 3v3h.17A4.47 4.47 0 0 0 2 9v7.37a4.1 4.1 0 0 0-2 3.4L.15 25c.37 1.69 3.07 3 6.35 3s6-1.31 6.35-3l.15-5.23a4.28 4.28 0 0 0-2-3.57V14h5v2.37a4.1 4.1 0 0 0-2 3.4l.15 5.23c.37 1.69 3.07 3 6.35 3s6-1.31 6.35-3l.15-5.23a4.28 4.28 0 0 0-2-3.57zM18 3a2.48 2.48 0 0 1 2.37-2h.26A2.48 2.48 0 0 1 23 3v2.26a4.48 4.48 0 0 0-5 0V3zM4 3a2.48 2.48 0 0 1 2.37-2h.26A2.48 2.48 0 0 1 9 3v2.26a4.48 4.48 0 0 0-5 0V3zm2.5 24c-3.09 0-5.39-1.26-5.39-2.39s2.31-2.39 5.39-2.39 5.39 1.26 5.39 2.39S9.59 27 6.5 27zm5.5-7.23v3.11a9.9 9.9 0 0 0-11 0v-3.11c0-2.34 2.92-3.75 5.76-3.77C9.85 16 12 17.56 12 19.77zm-2-4.42a14.92 14.92 0 0 0-6.66-.05l-.34.08V14h2v-1H3v-1h2v-1H3v-1h2V9H3a3.5 3.5 0 0 1 7 0v6.35zM11 13v-3h2v2h1v-2h2v3h-5zm6-4a3.5 3.5 0 0 1 7 0v6.35a14.92 14.92 0 0 0-6.66-.05l-.34.08V9zm3.5 18c-3.09 0-5.39-1.26-5.39-2.39s2.31-2.39 5.39-2.39 5.39 1.26 5.39 2.39S23.59 27 20.5 27zm5.5-4.12a9.9 9.9 0 0 0-11 0v-3.11c0-2.34 2.92-3.75 5.76-3.77 3.09 0 5.24 1.56 5.24 3.77v3.11z" fill="#ec585e"/></svg>