<svg id="Layer_1" data-name="Layer 1" xmlns="http://www.w3.org/2000/svg" viewBox="0 0 21 29.38"><defs><style>.cls-2{fill:#ec585e}</style></defs><path d="M357 188.38v-.12.13zm2-2.38c-1.36 0-1.94 1-2 2.31s.63 1.69 2 1.69h2v-2h6v2h9v-4h-17z" transform="translate(-356 -166)" fill="#ffdee4"/><path class="cls-2" d="M359.5 166a3.5 3.5 0 0 0-3.5 3.5V188a3 3 0 0 0 3 3h2v4.38l3-1.8 3 1.8V191h10v-25h-17.5zm6.5 25v2.62l-2-1.2-2 1.2V189h4v2zm10-1h-9v-1h1v-1h-8v1h1v1h-2a2 2 0 0 1 0-4h17v4zm0-5h-17a3 3 0 0 0-2 .78V169.5a2.5 2.5 0 0 1 2.5-2.5H376v18z" transform="translate(-356 -166)"/><path class="cls-2" d="M368 171v3.5a1.5 1.5 0 0 1-1 1.41V171h-1v4.91a1.5 1.5 0 0 1-1-1.41V171h-1v3.5a2.5 2.5 0 0 0 2 2.45V182h1v-5.05a2.5 2.5 0 0 0 2-2.45V171h-1z" transform="translate(-356 -166)"/></svg>