<svg id="Layer_1" data-name="Layer 1" xmlns="http://www.w3.org/2000/svg" viewBox="0 0 32.4 22.52"><defs><style>.cls-2{fill:#ec585e}</style></defs><path fill="#ffdee4" d="M16 2.98l1.72 3.48 3.85.55-2.79 2.72.66 3.82-3.44-1.8-3.45 1.8.66-3.82-2.78-2.72 3.85-.55L16 2.98z"/><path class="cls-2" d="M477 183.61l-4.79-2.52-4.79 2.52.91-5.33-3.87-3.78 5.35-.78 2.39-4.85 2.39 4.85 5.35.78-3.87 3.78zm-4.78-3.61l3.46 1.82-.68-3.89 2.8-2.73-3.87-.56-1.73-3.51-1.73 3.51-3.87.56 2.8 2.73-.66 3.85zm7.87 10.74a2.42 2.42 0 1 1 0-4.76c2.39 0 6.06 1.86 6.22 1.94l.87.45-.87.45c-.15.06-3.82 1.92-6.22 1.92zm0-3.76c-1.79 0-1.84 1.33-1.84 1.39s.11 1.37 1.84 1.37a14.29 14.29 0 0 0 4.81-1.38 14.31 14.31 0 0 0-4.81-1.36z" transform="translate(-456.25 -168.22)"/><path class="cls-2" d="M482.34 186.1a8 8 0 0 1-3-.61l-.44-.2.19-.45a6 6 0 0 1 8.41-3.33l.44.2-.19.45a7.12 7.12 0 0 1-3.45 3.59 5.39 5.39 0 0 1-1.96.35zm-2.08-1.35a4.83 4.83 0 0 0 6.35-2.52 4.83 4.83 0 0 0-6.35 2.53z" transform="translate(-456.25 -168.22)"/><path class="cls-2" d="M483.31 180.73a9 9 0 0 1-1.86-.19l-.39-.09V180c0-.12 0-3.05 2-4.49s5-.73 5.15-.7l.39.09v.4c0 .12 0 3.05-2 4.49a5.71 5.71 0 0 1-3.29.94zm-1.22-1.09A5.83 5.83 0 0 0 486 179a4.69 4.69 0 0 0 1.59-3.26 5.84 5.84 0 0 0-3.93.62 4.67 4.67 0 0 0-1.57 3.28z" transform="translate(-456.25 -168.22)"/><path class="cls-2" d="M482 175.5l-.08-.47a6.17 6.17 0 0 1 1-4.53 7.34 7.34 0 0 1 4.34-2.22l.47-.06.08.47a6.17 6.17 0 0 1-1 4.53 7.34 7.34 0 0 1-4.34 2.22zm4.91-6.13a5.91 5.91 0 0 0-3.18 1.76 4.86 4.86 0 0 0-.88 3.22 5.91 5.91 0 0 0 3.18-1.76 4.86 4.86 0 0 0 .86-3.22zm-22.11 21.37c-2.39 0-6.06-1.86-6.22-1.94l-.87-.45.87-.45c.15-.08 3.82-1.94 6.22-1.94a2.42 2.42 0 1 1 0 4.78zm-4.8-2.38a14.32 14.32 0 0 0 4.81 1.38c1.74 0 1.84-1.25 1.84-1.4s-.11-1.34-1.85-1.34a14.3 14.3 0 0 0-4.8 1.36z" transform="translate(-456.25 -168.22)"/><path class="cls-2" d="M462.56 186.1a5.39 5.39 0 0 1-2-.36 7.12 7.12 0 0 1-3.45-3.59l-.19-.45.44-.2a6 6 0 0 1 8.41 3.33l.19.45-.44.2a8 8 0 0 1-2.96.62zm-4.28-3.86a4.83 4.83 0 0 0 6.35 2.52 4.83 4.83 0 0 0-6.35-2.52z" transform="translate(-456.25 -168.22)"/><path class="cls-2" d="M461.58 180.73a5.7 5.7 0 0 1-3.3-.89c-2-1.43-2-4.36-2-4.49v-.4l.39-.09c.13 0 3.18-.71 5.15.7s2 4.36 2 4.49v.4l-.39.09a9 9 0 0 1-1.85.19zm-4.3-5a4.69 4.69 0 0 0 1.59 3.26 5.81 5.81 0 0 0 3.93.62 4.69 4.69 0 0 0-1.59-3.26 5.8 5.8 0 0 0-3.93-.59z" transform="translate(-456.25 -168.22)"/><path class="cls-2" d="M462.92 175.5l-.47-.06a7.34 7.34 0 0 1-4.34-2.22 6.17 6.17 0 0 1-1-4.53l.08-.47.47.06a7.34 7.34 0 0 1 4.34 2.22 6.18 6.18 0 0 1 1 4.53zm-4.92-6.13a4.89 4.89 0 0 0 .88 3.22 5.91 5.91 0 0 0 3.18 1.76 4.89 4.89 0 0 0-.88-3.22 5.88 5.88 0 0 0-3.18-1.76z" transform="translate(-456.25 -168.22)"/></svg>