<svg id="Layer_1" data-name="Layer 1" xmlns="http://www.w3.org/2000/svg" viewBox="0 0 29.83 32.96"><defs><style>.cls-1{fill:#ec585e}</style></defs><path class="cls-1" d="M248.25 273.46c-.11-2.1 1.27-3.58 3.67-4l.15 1c-1.1.17-2.94.78-2.83 2.91z" transform="translate(-245.5 -263.04)"/><path d="M6.5 20h16a1 1 0 0 1-1 1h-14a1 1 0 0 1-1-1z" fill="#ffdee4"/><path class="cls-1" d="M268.65 266.76a7.42 7.42 0 0 0-2.05.31 6.76 6.76 0 0 0-6.39-4 7.11 7.11 0 0 0-6.45 3.91 7.39 7.39 0 0 0-1.59-.19c-3.68 0-6.68 2.63-6.68 5.87 0 2.88 2.38 5.28 5.5 5.77v5.1a1.5 1.5 0 0 0 1.5 1.5h15a1.5 1.5 0 0 0 1.5-1.5v-5c3.52-.16 6.33-2.72 6.33-5.86s-2.98-5.91-6.67-5.91zM268 283.5a.5.5 0 0 1-.5.5h-15a.5.5 0 0 1-.5-.5v-.5h16v.5zm1-6v-.5h-1v5h-2v-4h-1v4h-3v-4h-1v4h-3v-4h-1v4h-5v-3.5s.06 0 0 0v-1s.06 0 0 0v-.5h-1v.39a5.13 5.13 0 0 1-4.5-4.76c0-2.69 2.55-4.87 5.68-4.87a6.38 6.38 0 0 1 1.25.14 4.66 4.66 0 0 0-.14 1.1h1c0-3 2.6-5 5.93-5 3.62 0 5.78 2.54 5.78 5.07v.93h1v-.9a5.53 5.53 0 0 0-.11-1.08 6.42 6.42 0 0 1 1.77-.26c3.13 0 5.68 2.19 5.68 4.87s-2.34 4.7-5.34 4.85zm1 14.97a3.86 3.86 0 0 1-.79 2.65 3.2 3.2 0 0 1-4.41 0 3.84 3.84 0 0 1-.8-2.65v-1.93a3.87 3.87 0 0 1 .79-2.65 3.19 3.19 0 0 1 4.41 0 3.85 3.85 0 0 1 .8 2.65v1.93zm-1.77-2.11a2.89 2.89 0 0 0-.31-1.54 1.13 1.13 0 0 0-1.84 0 2.93 2.93 0 0 0-.3 1.54v2.28a2.93 2.93 0 0 0 .31 1.55 1 1 0 0 0 .93.47 1 1 0 0 0 .91-.47 3 3 0 0 0 .3-1.55v-2.28zM256 296h-5.79v-1.11l2.74-2.94a6.62 6.62 0 0 0 .85-1.15 1.86 1.86 0 0 0 .24-.87 1.32 1.32 0 0 0-.28-.88 1 1 0 0 0-.82-.33 1.06 1.06 0 0 0-.9.39 1.72 1.72 0 0 0-.3 1.07H250a2.71 2.71 0 0 1 .77-2 2.84 2.84 0 0 1 2.12-.79 3 3 0 0 1 2.07.67 2.35 2.35 0 0 1 .74 1.83 2.55 2.55 0 0 1-.41 1.41 13.67 13.67 0 0 1-1.41 1.71l-1.54 1.68H256V296zm1.49-3.88l.51-4.72h4.73v1.36h-3.34l-.23 2a2 2 0 0 1 .56-.29 2.72 2.72 0 0 1 2.64.61 3.09 3.09 0 0 1 .66 2.12 2.93 2.93 0 0 1-.72 2 2.74 2.74 0 0 1-2.14.8 3.22 3.22 0 0 1-2-.63 2.12 2.12 0 0 1-.82-1.79l1.68-.08a1.19 1.19 0 0 0 .31.89 1.15 1.15 0 0 0 .84.31 1 1 0 0 0 .88-.42 2 2 0 0 0 .28-1.11A2.07 2.07 0 0 0 261 292a1 1 0 0 0-.9-.43 1.33 1.33 0 0 0-.75.17 1 1 0 0 0-.36.49z" transform="translate(-245.5 -263.04)"/></svg>