<svg id="Layer_1" data-name="Layer 1" xmlns="http://www.w3.org/2000/svg" viewBox="0 0 29.83 32.96"><defs><style>.cls-1{fill:#ec585e}</style></defs><path class="cls-1" d="M251 396h-2v-7l-1.92.32v-1.08l3.92-.71V396zm7-3.53a3.86 3.86 0 0 1-.79 2.65 3.2 3.2 0 0 1-4.41 0 3.84 3.84 0 0 1-.8-2.65v-1.93a3.87 3.87 0 0 1 .79-2.65 3.19 3.19 0 0 1 4.41 0 3.85 3.85 0 0 1 .8 2.65v1.93zm-1.77-2.11a2.89 2.89 0 0 0-.31-1.54 1.13 1.13 0 0 0-1.84 0 2.93 2.93 0 0 0-.3 1.54v2.28a2.93 2.93 0 0 0 .31 1.55 1 1 0 0 0 .93.47 1 1 0 0 0 .91-.47 3 3 0 0 0 .3-1.55v-2.28zm8.77 2.11a3.86 3.86 0 0 1-.79 2.65 3.2 3.2 0 0 1-4.41 0 3.84 3.84 0 0 1-.8-2.65v-1.93a3.87 3.87 0 0 1 .79-2.65 3.19 3.19 0 0 1 4.41 0 3.85 3.85 0 0 1 .8 2.65v1.93zm-1.77-2.11a2.89 2.89 0 0 0-.31-1.54 1.13 1.13 0 0 0-1.84 0 2.93 2.93 0 0 0-.3 1.54v2.28a2.93 2.93 0 0 0 .31 1.55 1 1 0 0 0 .93.47 1 1 0 0 0 .91-.47 3 3 0 0 0 .3-1.55v-2.28zm8.77 2.11a3.86 3.86 0 0 1-.79 2.65 3.2 3.2 0 0 1-4.41 0 3.84 3.84 0 0 1-.8-2.65v-1.93a3.87 3.87 0 0 1 .79-2.65 3.19 3.19 0 0 1 4.41 0 3.85 3.85 0 0 1 .8 2.65v1.93zm-1.77-2.11a2.89 2.89 0 0 0-.31-1.54 1.13 1.13 0 0 0-1.84 0 2.93 2.93 0 0 0-.3 1.54v2.28a2.93 2.93 0 0 0 .31 1.55 1 1 0 0 0 .93.47 1 1 0 0 0 .91-.47 3 3 0 0 0 .3-1.55v-2.28zm-21.98-16.9c-.11-2.1 1.27-3.58 3.67-4l.15 1c-1.1.17-2.94.78-2.83 2.91z" transform="translate(-245.5 -363.04)"/><path d="M6.5 20h16a1 1 0 0 1-1 1h-14a1 1 0 0 1-1-1z" fill="#ffdee4"/><path class="cls-1" d="M268.65 366.76a7.42 7.42 0 0 0-2.05.31 6.76 6.76 0 0 0-6.39-4 7.11 7.11 0 0 0-6.45 3.91 7.39 7.39 0 0 0-1.59-.19c-3.68 0-6.68 2.63-6.68 5.87 0 2.88 2.38 5.28 5.5 5.77v5.1a1.5 1.5 0 0 0 1.5 1.5h15a1.5 1.5 0 0 0 1.5-1.5v-5c3.52-.16 6.33-2.72 6.33-5.86s-2.98-5.91-6.67-5.91zM268 383.5a.5.5 0 0 1-.5.5h-15a.5.5 0 0 1-.5-.5v-.5h16v.5zm1-6v-.5h-1v5h-2v-4h-1v4h-3v-4h-1v4h-3v-4h-1v4h-5v-3.5s.06 0 0 0v-1s.06 0 0 0v-.5h-1v.39a5.13 5.13 0 0 1-4.5-4.76c0-2.69 2.55-4.87 5.68-4.87a6.38 6.38 0 0 1 1.25.14 4.66 4.66 0 0 0-.14 1.1h1c0-3 2.6-5 5.93-5 3.62 0 5.78 2.54 5.78 5.07v.93h1v-.9a5.53 5.53 0 0 0-.11-1.08 6.42 6.42 0 0 1 1.77-.26c3.13 0 5.68 2.19 5.68 4.87s-2.34 4.7-5.34 4.85z" transform="translate(-245.5 -363.04)"/></svg>