<svg height="24" viewBox="0 0 24 24" width="24" xmlns="http://www.w3.org/2000/svg"><g fill="none" fill-rule="evenodd"><path d="m0 0h24v24h-24z" opacity=".2"/><path d="m7 4.7081449c0-.39109763.31387329-.7081449.69674683-.7081449h2.60650637c.3848026 0 .6967468.30533409.6967468.7081449v14.5837102c0 .3910976-.3138733.7081449-.6967468.7081449h-2.60650637c-.38480265 0-.69674683-.3053341-.69674683-.7081449zm6 0c0-.39109763.3138733-.7081449.6967468-.7081449h2.6065064c.3848026 0 .6967468.30533409.6967468.7081449v14.5837102c0 .3910976-.3138733.7081449-.6967468.7081449h-2.6065064c-.3848026 0-.6967468-.3053341-.6967468-.7081449z" fill="#fff"/></g></svg>