<svg xmlns="http://www.w3.org/2000/svg" width="24" height="24">
  <path fill="#828A99" fill-rule="nonzero" d="M8.557 16.819a.9.9 0 1 0 1.084-1.438c-1.176-.886-1.841-2.099-1.841-3.38 0-1.283.665-2.496 1.841-3.382A.9.9 0 0 0 8.558 7.18C6.95 8.393 6 10.125 6 12.001c0 1.874.949 3.606 2.557 4.818zM12 14a2 2 0 1 0 0-4 2 2 0 0 0 0 4zm3.443 2.819C17.05 15.607 18 13.875 18 12s-.95-3.607-2.559-4.819a.9.9 0 1 0-1.083 1.438c1.177.886 1.842 2.1 1.842 3.381 0 1.282-.665 2.495-1.84 3.381a.9.9 0 1 0 1.083 1.438zm4.183 1.87C21.137 16.943 22 14.554 22 12.009c0-2.53-.853-4.907-2.349-6.65l-.017-.021-.024-.028a.9.9 0 1 0-1.36 1.18l.022.025.013.015c1.211 1.413 1.915 3.373 1.915 5.48 0 2.117-.712 4.087-1.935 5.501a.9.9 0 0 0 1.361 1.178zm-15.252 0a.9.9 0 0 0 1.36-1.178C4.513 16.097 3.8 14.127 3.8 12.01c0-2.106.704-4.066 1.915-5.479l.013-.015.022-.025a.9.9 0 0 0-1.36-1.18l-.024.028-.017.02C2.853 7.102 2 9.478 2 12.01c0 2.545.863 4.934 2.374 6.68z"/>
</svg>