<svg height="16" width="16" xmlns="http://www.w3.org/2000/svg"><rect fill="none" height="15" rx="7.5" stroke="#b4bfcc" width="15" x=".5" y=".5"/><path d="m5.673 6.344h1.112c.049-.687.527-1.122 1.268-1.122.736 0 1.214.43 1.214 1.02 0 .543-.231.849-.881 1.24-.736.441-1.064.925-1.037 1.698l.006.408h1.111v-.322c0-.542.2-.827.892-1.235.709-.425 1.128-1.01 1.128-1.837 0-1.166-.956-2.009-2.374-2.009-1.558 0-2.39.924-2.439 2.16zm2.305 5.78c.494 0 .827-.328.827-.817 0-.5-.333-.827-.827-.827-.495 0-.833.328-.833.827 0 .489.338.817.833.817z" fill="#828a99"/></svg>