<svg height="24" width="48" xmlns="http://www.w3.org/2000/svg"><g fill="none" fill-rule="evenodd"><path d="M24 0h24v24H24z"/><g fill="#828a99"><path d="M29 11.505c0-.279.228-.505.51-.505H39v2h-9.49a.5.5 0 01-.51-.505zm0-4c0-.279.226-.505.494-.505h12.012c.273 0 .494.214.494.505v.99a.502.502 0 01-.494.505H29.494A.492.492 0 0129 8.495zm0 8c0-.279.215-.505.49-.505H33v2h-3.51a.49.49 0 01-.49-.505z"/><path d="M36.707 15.293a1 1 0 00-1.414 1.414l2 2a1 1 0 001.414 0l7-7a1 1 0 00-1.414-1.414L38 16.586z" fill-rule="nonzero"/></g><path d="M0 0h24v24H0z"/><path d="M5 11.505c0-.279.233-.505.503-.505H12v2H5.503A.497.497 0 015 12.495zm0-4C5 7.226 5.226 7 5.494 7h12.012c.273 0 .494.214.494.505v.99a.502.502 0 01-.494.505H5.494A.492.492 0 015 8.495zm0 8c0-.279.233-.505.503-.505H12v2H5.503A.497.497 0 015 16.495zm9.415 3.418c-.23.156-.415.057-.415-.219v-7.407c0-.277.178-.38.415-.218l5.342 3.64c.229.155.237.403 0 .564z" fill="#828a99"/></g></svg>