<svg height="72" viewBox="0 0 72 72" width="72" xmlns="http://www.w3.org/2000/svg"><g fill="none" fill-rule="evenodd"><path d="m0 0h72v72h-72z"/><path d="m42.5 18h-33c-.82842712 0-1.5.6715729-1.5 1.5s.67157288 1.5 1.5 1.5h33c.8284271 0 1.5-.6715729 1.5-1.5s-.6715729-1.5-1.5-1.5zm0 12h-33c-.82842712 0-1.5.6715729-1.5 1.5s.67157288 1.5 1.5 1.5h33c.8284271 0 1.5-.6715729 1.5-1.5s-.6715729-1.5-1.5-1.5zm-33 15c-.82842712 0-1.5-.6715729-1.5-1.5s.67157288-1.5 1.5-1.5h23c.8284271 0 1.5.6715729 1.5 1.5s-.6715729 1.5-1.5 1.5zm44.5 1.2665767c0 9.0247975-1.7494466 10.7668864-8.7488058 11.684387-3.3364518.4373539-7.2511942-1.0769136-7.2511942-6.3234191 0-2.5628074 1.603626-4.996526 4.9222856-5.6324987 2.5344608-.4856924-.1815623.0363869 5.5521446-1.0280794 1.3919505-.2584165 1.5496826-.75646 1.5496826-1.8175819 0-.5328188-.0026365-5.1902877-.0192719-8.3880674v-8.6356283s-.010892-4.116544 0-6.1747951c.0130272-2.4617298 1.3592916-3.3664367 5.3275843-4.1679516 0 0 6.0464225-1.1479356 9.3704503-1.7508398.7355662-.1334152 1.2971245.1403611 1.2971245.9840516 0 0-.0213548 5.2442021 0 8.1086771.0062012.8318081-.3368479 1.208402-1.1799422 1.3580445-3.3633975.596976-9.7298555 1.7207236-9.7298555 1.7207236-.7477585.1836552-1.0902023.7099992-1.0902023 1.4665831z" fill="#6f98c7"/></g></svg>