<svg height="24" width="24" xmlns="http://www.w3.org/2000/svg"><g fill="none" fill-rule="evenodd"><path d="m0 0h24v24h-24z"/><path d="m12.464 5.013a.5.5 0 0 0 -.925 0l-1.966 4.783-4.501.443a.5.5 0 0 0 -.276.878l3.56 3.037-1.218 4.516a.5.5 0 0 0 .766.543l4.098-2.811 4.183 2.812a.5.5 0 0 0 .76-.553l-1.298-4.507 3.56-3.037a.5.5 0 0 0 -.275-.878l-4.502-.443zm3.15 3.19 3.485.344a2.2 2.2 0 0 1 1.212 3.863l-2.727 2.327.994 3.454a2.2 2.2 0 0 1 -3.341 2.434l-3.226-2.168-3.145 2.158a2.2 2.2 0 0 1 -3.369-2.388l.938-3.477-2.742-2.34a2.2 2.2 0 0 1 1.212-3.863l3.484-.343 1.578-3.838a2.2 2.2 0 0 1 4.07 0l1.577 3.838z" fill="#828a99" fill-rule="nonzero"/></g></svg>