<svg data-name="Layer 1" xmlns="http://www.w3.org/2000/svg" viewBox="0 0 540 185.87"><defs><linearGradient id="a" x1="-490.31" y1="-1917.2" x2="-388.56" y2="-1762.09" gradientTransform="rotate(45 -2504.03 -231.063)" gradientUnits="userSpaceOnUse"><stop offset="0" stop-color="#97d7d3"/><stop offset="1" stop-color="#5eb0dd"/></linearGradient></defs><path d="M158.71 27.19A93 93 0 0 0 17.42 147.11a3.35 3.35 0 0 0 2.36 1.37c.88.09 1.46.16 4.42-2.13 2-1.54 3.8-3.09 5.62-4.68 2.2-1.9 5-4.34 8.42-7.45l.09-.07c1.92-1.71 4.05-3.63 6.43-5.78a15.78 15.78 0 0 0 2.81-15.54c-2.38-6.83-1.37-13.53 3.58-18.3 11-10.62 21.8-20.45 33.09-30.8.69-.63 3.27-1.13 4.16-.56l1.56 1a4.81 4.81 0 0 1 2.3 4 3.78 3.78 0 0 1-1.08 2.71c-7.43 7.42-15 14.73-22.37 22.19-2.52 2.55-2 5.48.52 7.49 2.76 2.21 4.9 1.3 6.86-.67 7.4-7.46 14.86-14.84 22.28-22.28a5.12 5.12 0 0 1 7.21.41l.59.59a5.65 5.65 0 0 1 1.7 4 4.53 4.53 0 0 1-1.3 3.24Q95.53 97 84.36 108.06c-2 2-3 4-.74 6.78 2 2.5 5 3.12 7.55.6 7.46-7.44 14.83-14.89 22.25-22.31 1.85-1.86 5.18-1.27 6.74 1.21.3.48.61 1 1 1.52.56.89.06 3.47-.57 4.15-10.34 11.3-20.18 22-30.81 33.07C85 138 78.24 139 71.46 136.62c-7-2.47-12.3.84-17.34 5.44l-1.49 1.37c-8.31 8.59-12.78 13.26-15.18 16l-.1.12c-2.7 3.05-2.66 3.56-2.59 4.53a3.31 3.31 0 0 0 1.24 2.34A93 93 0 0 0 158.71 27.19zM154 154a86.46 86.46 0 0 1-109.32 10.52 1.88 1.88 0 0 1-.3-2.85c3.26-3.47 9.31-9.8 13.25-13.93a7 7 0 0 1 8.27-1.47 59.83 59.83 0 1 0-27.14-28A7.06 7.06 0 0 1 37 126.5c-4.31 3.78-10.87 9.57-14.44 12.62a1.9 1.9 0 0 1-2.85-.45A86.36 86.36 0 1 1 154 154z" fill="url(#a)"/><path d="M224.1 138.82h-5.45l-1.27 3.45h-1.68l5-12.94h1.42l4.88 12.94h-1.68zm-5-1.33h4.48l-2.22-6.13zm13.55 4.78v-12.94h4.15a5.17 5.17 0 0 1 3.19.86 3.11 3.11 0 0 1 1.12 2.64 2.44 2.44 0 0 1-.54 1.56 3.15 3.15 0 0 1-1.42 1 2.92 2.92 0 0 1 1.82 1.13 3.41 3.41 0 0 1 .66 2.09 3.31 3.31 0 0 1-1.13 2.72 4.82 4.82 0 0 1-3.13.92h-4.73zm1.64-7.41h3a2.47 2.47 0 0 0 1.62-.56 2.23 2.23 0 0 0-.07-3.12 3.22 3.22 0 0 0-2-.52h-2.51v4.2zm0 1.32v4.76h3.08a2.86 2.86 0 0 0 1.93-.59 2.14 2.14 0 0 0 .68-1.71 2.65 2.65 0 0 0-.57-1.81 2.27 2.27 0 0 0-1.79-.65h-3.33zm22.05-5.52h-4.08v11.61h-1.64v-11.61h-4.08v-1.33h9.8v1.33zm15.42 6.28a5.59 5.59 0 0 1-1.44 3.95 4.94 4.94 0 0 1-3.81 1.56 4.7 4.7 0 0 1-3.69-1.56 5.71 5.71 0 0 1-1.4-3.95v-2.28a5.73 5.73 0 0 1 1.4-3.95 4.69 4.69 0 0 1 3.69-1.57 4.93 4.93 0 0 1 3.81 1.57 5.61 5.61 0 0 1 1.44 3.95v2.28zm-1.64-2.3a4.46 4.46 0 0 0-1-3 3.25 3.25 0 0 0-2.64-1.17 3 3 0 0 0-2.52 1.17 4.61 4.61 0 0 0-.92 3v2.3a4.64 4.64 0 0 0 .92 3 3 3 0 0 0 2.52 1.17 3.25 3.25 0 0 0 2.64-1.16 4.5 4.5 0 0 0 1-3v-2.3zm9.71 2.42v5.21h-1.64v-12.94h4.87a4.58 4.58 0 0 1 3.23 1 4.12 4.12 0 0 1 0 5.65 4.6 4.6 0 0 1-3.23 1h-3.23zm0-1.32h3.23a2.68 2.68 0 0 0 2-.71 2.56 2.56 0 0 0 .66-1.82 2.6 2.6 0 0 0-.66-1.84 2.67 2.67 0 0 0-2-.71h-3.23v5.08zm22.86 2.43a4.9 4.9 0 0 1-1.43 3.12 4.65 4.65 0 0 1-3.36 1.16 4.56 4.56 0 0 1-3.59-1.53 5.78 5.78 0 0 1-1.35-4v-2.28a5.81 5.81 0 0 1 1.35-4 4.54 4.54 0 0 1 3.59-1.54 4.74 4.74 0 0 1 3.37 1.12 4.89 4.89 0 0 1 1.41 3.19H301a4 4 0 0 0-.95-2.23 2.91 2.91 0 0 0-2.19-.75 2.85 2.85 0 0 0-2.41 1.18 4.85 4.85 0 0 0-.88 3v2.3a4.87 4.87 0 0 0 .88 3 2.85 2.85 0 0 0 2.41 1.18 3 3 0 0 0 2.2-.73 3.91 3.91 0 0 0 .94-2.23h1.64zm9.23-1.77h-1.56v5.87h-1.64v-12.94h1.64v5.75h1.41l4.7-5.75h1.88l-5.09 6.28 5.46 6.67h-2zm19.26 2.42h-5.45l-1.27 3.45h-1.68l5-12.94h1.42l4.92 12.94h-1.68zm-5-1.33h4.48l-2.22-6.13zm14.56 4.78H339l3-5.54a4.09 4.09 0 0 1-1.92-1.35 4.06 4.06 0 0 1 .55-5.05 5.07 5.07 0 0 1 3.37-1h4.12v12.94h-1.65v-5.08h-3zm5.73-11.61H344a3.13 3.13 0 0 0-2.18.67 2.41 2.41 0 0 0-.73 1.88 2.59 2.59 0 0 0 .73 1.92 2.89 2.89 0 0 0 2.12.72h2.52v-5.19zm19.84 5.74h-1.56v5.87h-1.65v-12.94h1.64v5.75h1.41l4.7-5.75h1.88l-5.09 6.28 5.46 6.67h-2zm15.76-.91l.67 1.73 3.06-7.89h1.91l-4.59 10.81a5.61 5.61 0 0 1-1.14 1.75 2.81 2.81 0 0 1-2 .57h-.51l-.38-.05.05-1.28h.86a1.23 1.23 0 0 0 1-.33 4.82 4.82 0 0 0 .65-1.06l.35-.74-4.43-9.65h1.85zm20.62-6.16v12.94H401v-11.61h-4.68l-.15 4.74a13.11 13.11 0 0 1-1 5.3 3 3 0 0 1-2.95 1.57h-.45v-1.32h.36a1.77 1.77 0 0 0 1.75-1.21 14 14 0 0 0 .61-4.33l.2-6.07h7.94zm14.97 0h1.64v12.94h-1.64v-10.09l-6.43 10.09h-1.64v-12.94h1.64v10.08zm18.25 12.94h-1.64v-5.74h-6.45v5.74h-1.64v-12.94h1.64v5.88h6.45v-5.88h1.64v12.94zm14.17-3.45h-5.45l-1.27 3.45h-1.68l5-12.94h1.42l4.9 12.94h-1.68zm-5-1.33h4.48l-2.22-6.13zm15.19-.43v5.21h-1.64v-12.94h4.87a4.58 4.58 0 0 1 3.23 1 4.12 4.12 0 0 1 0 5.65 4.6 4.6 0 0 1-3.23 1h-3.23zm0-1.32h3.23a2.68 2.68 0 0 0 2-.71 2.56 2.56 0 0 0 .66-1.82 2.6 2.6 0 0 0-.66-1.84 2.67 2.67 0 0 0-2-.71h-3.23v5.08zm21.73-6.41h1.64v12.94H482v-10.09l-6.43 10.09h-1.64v-12.94h1.64v10.08zm9.5 12.94h-1.75l3-5.54a4.09 4.09 0 0 1-1.92-1.35 4.06 4.06 0 0 1 .55-5.05 5.07 5.07 0 0 1 3.37-1h4.12v12.94h-1.65v-5.08h-3zm5.73-11.61h-2.46a3.13 3.13 0 0 0-2.18.67 2.41 2.41 0 0 0-.73 1.88 2.59 2.59 0 0 0 .73 1.92 2.89 2.89 0 0 0 2.12.72h2.52v-5.19zM262.18 90.09c0 10.52-8.57 17.39-19.17 17.39h-24.94V48.09h23.24c10.35 0 18.75 6.7 18.75 17a14.86 14.86 0 0 1-5.17 11.62 15.33 15.33 0 0 1 7.29 13.38zm-30.54-29.27v10.52h9.67a5.26 5.26 0 0 0 0-10.52h-9.67zm17 28.25a5.37 5.37 0 0 0-5.6-5.68h-11.4v11.36H243a5.37 5.37 0 0 0 5.61-5.68zm59.77-24.01v42.42H296V86.27l-18.15 21.21h-9.33V65.06h12.39v21.21l18.15-21.21h9.33zm46.23 42.42h-12.72v-30.2h-9.16v12.64c0 12.81-6.45 19-18.83 17.56V95.6c4 1.19 6.11-1.27 6.11-6.53v-24h34.61v42.42zm35.63 0L376.7 88.73v18.75H364V65.06h12.7v18.58l12.72-18.58h14.85l-15.44 21.21 15.86 21.21h-14.42zm58.96-42.42v42.42h-12.39V86.27l-18.15 21.21h-9.33V65.06h12.39v21.21l18.15-21.21h9.33zm49.19 0v42.42H485.7V92.21h-14.42v15.27h-12.73V65.06h12.73v15.27h14.42V65.06h12.73z" fill="#213363"/><path d="M510.15 45.08a4.78 4.78 0 0 1-4.86 4.76h-2.09v4.37H500V40.32h5.26a4.78 4.78 0 0 1 4.89 4.76zm-3.18 0a1.7 1.7 0 0 0-1.69-1.79h-2.08v3.57h2.08a1.7 1.7 0 0 0 1.72-1.78zm10.65 4.57h-1.51v4.57h-3.18v-13.9h5.56a4.75 4.75 0 0 1 4.77 4.76 4.58 4.58 0 0 1-2.56 4l3 5.1h-3.41zm-1.51-2.78h2.38a1.8 1.8 0 0 0 0-3.57h-2.38v3.57zm9.43.4a7.23 7.23 0 1 1 7.23 7.23 7.16 7.16 0 0 1-7.23-7.23zm11.28 0a4.05 4.05 0 1 0-4 4.13 4 4 0 0 0 4-4.13z" fill="#ee585c"/></svg>